<svg width="400" height="400" viewBox="0 0 400 400" fill="none" xmlns="http://www.w3.org/2000/svg">
<rect width="400" height="400" fill="white"/>
<path d="M124.524 135.2C121.939 135.2 120.733 135.813 119.321 137.844C118.311 139.298 116.818 142.435 116.004 144.815C115.19 147.194 113.638 151.196 112.554 153.708C111.399 156.384 109.622 158.275 108.42 159.13C107.458 159.958 103.336 162.629 99.7668 165.86L94.9595 171.496L93.9981 174.14L93.2724 177.745C93.2691 181.952 94.0623 185.886 95.9164 190.859C97.9096 196.206 99.5166 198.777 102.411 201.247C104.526 203.052 109.718 207.336 113.948 210.767C118.178 214.198 123.37 217.779 125.485 218.725C127.601 219.671 131.927 221.211 135.1 222.147C138.273 223.082 141.734 224.217 142.792 224.669C143.849 225.12 146.445 225.929 148.56 226.465C150.675 227.002 156.084 228.104 160.578 228.914C165.073 229.725 171.366 231.753 174.274 232.549C177.183 233.345 186.98 235.473 191.739 236.837C199.316 239.008 215.385 239.039 224.755 240.442C237.182 240.924 235.571 240.442 245.417 240.442C247.571 240.442 250.212 239.875 251.666 240.442C253.163 241.026 256.208 243.152 258.044 246.01C259.829 248.786 264.263 253.96 267.899 257.508C273.636 263.106 274.986 263.964 278.115 263.998C281.204 264.032 281.97 263.589 283.459 260.913C284.415 259.194 285.822 255.678 286.584 253.1C287.73 250.577 287.485 251.018 288.691 248.052C289.172 246.25 289.416 243.258 289.421 237.837L289.627 229.145L296.152 221.973C301.643 217.063 302.872 215.436 302.872 213.079C302.872 211.493 302.44 209.33 301.911 208.272C301.134 206.717 299.982 206.347 295.902 206.339C293.126 206.334 286.744 207.193 281.721 208.247C276.697 209.302 274.593 209.152 270.904 210.18C267.539 211.117 268.26 211.414 265.616 212.079C262.432 213.481 261.568 213.213 258.219 212.023C256.133 211.282 253.97 210.2 253.412 209.619C252.853 209.037 250.431 206.441 248.028 203.85C245.626 201.258 241.533 198.398 239.177 196.494C236.82 194.59 231.497 191.453 227.399 189.523C223.301 187.593 219.239 185.541 217.784 185.197C216.33 184.852 212.111 182.386 208.701 180.484C205.292 178.581 200.857 175.402 198.846 173.419L196.147 169.332L195.426 166.929L195.201 164.285C195.208 161.244 194.492 156.593 193.612 153.949C192.732 151.305 190.672 147.29 189.034 145.028C186.881 142.052 185.391 140.92 183.653 140.936C182.323 140.948 179.281 142.571 176.842 144.569C174.417 146.555 171.28 149.586 169.871 151.305C168.462 153.023 167.304 153.266 166.102 154.468C165.381 154.924 164.419 155.631 163.218 156.352C161.775 157.314 162.016 157.314 160.355 156.739C159.853 156.352 156.865 154.969 154.089 154.095C151.312 153.221 146.77 152.489 143.993 152.467L138.946 152.428L136.833 147.9C135.67 145.41 133.183 141.534 131.304 139.286C128.481 135.908 127.306 135.2 124.524 135.2ZM125.485 140.291C126.014 140.484 127.623 142.338 129.06 144.411C130.497 146.484 132.176 149.694 132.79 151.545C133.405 153.396 134.393 155.47 134.985 156.155C135.651 156.925 138.261 157.385 141.83 157.361C145.598 157.336 149.933 158.147 154.329 159.701C158.03 161.01 161.924 162.094 162.982 162.109C164.049 162.125 168.758 158.723 173.558 154.468C178.317 150.249 182.752 146.784 183.413 146.768C184.074 146.751 185.912 149.442 187.498 152.747C189.67 157.274 190.142 160.12 190.143 164.285C190.143 167.325 190.993 171.003 191.739 172.457C192.485 173.911 194.324 176.207 195.826 177.558C197.327 178.91 201.151 181.58 204.324 183.491C207.497 185.403 214.419 189.512 219.707 191.687C224.995 193.861 230.812 197.424 232.927 198.657C235.042 199.89 240.258 202.832 244.224 207.075C248.19 211.318 252.841 215.487 254.56 216.338C256.278 217.19 259.523 217.894 261.771 217.903C264.018 217.912 266.289 217.693 266.818 217.126C268.26 216.643 271.241 215.235 275.471 214.472C279.702 213.709 286.071 212.542 289.627 211.88C294.921 210.894 296.313 210.905 297.318 211.942C298.32 212.975 297.094 214.242 295.569 215.788C293.931 217.207 291.085 219.771 288.634 221.733L286.038 224.818L284.676 226.26L284.124 228.463L284.676 236.155C284.676 242.125 284.243 245.126 281.465 251.815C279.755 255.933 279.793 259.312 277.87 259.23C275.947 259.148 275.014 257.169 272.106 254.612C269.198 252.054 265.043 247.18 262.873 243.78C260.703 240.379 256.238 235.875 251.19 235.394C242.777 235.394 238.691 234.634 229.317 235.394C223.068 234.634 201.24 233.502 196.628 232.549C192.926 231.785 186.97 230.259 182.211 228.919C177.452 227.578 168.366 225.447 162.02 224.184C155.675 222.92 148.536 221.265 146.157 220.506C143.777 219.747 139.883 218.601 137.504 217.96C135.124 217.319 130.365 215.435 126.928 213.773C123.49 212.111 118.299 208.476 115.39 205.694C112.482 202.913 109.617 201.301 109.136 200.821C108.656 200.58 107.237 198.861 105.771 197.416C104.306 195.972 103.853 195.013 103.132 193.811C102.17 191.647 101.83 191.098 100.501 188.321C98.9399 185.061 98.5407 181.416 98.5603 178.466C99.0411 175.341 99.2687 174.592 100.501 172.457C101.674 171.129 104.574 168.068 107.218 166.548C109.862 165.028 113.01 162.869 114.213 161.751C115.15 160.198 115.871 158.996 116.111 158.275C116.352 157.554 117.031 155.535 117.846 153.949C118.661 152.362 119.78 149.334 120.333 147.218C120.886 145.103 122.055 142.6 122.931 141.656C123.807 140.712 124.957 140.098 125.485 140.291ZM127.889 162.335C127.096 162.151 125.927 162.568 125.291 163.262C124.655 163.957 123.898 165.931 123.609 167.65C123.229 169.902 123.497 170.976 124.57 171.496C125.461 171.928 126.632 171.638 127.491 170.774C128.279 169.981 129.015 167.834 129.127 166.002C129.268 163.711 128.881 162.567 127.889 162.335ZM170.673 168.852C169.88 168.852 168.549 170.474 167.715 172.457C166.881 174.44 166.34 177.144 166.513 178.466C166.727 180.101 167.428 180.87 168.703 180.87C170.078 180.87 170.95 179.716 171.971 176.543C172.737 174.164 173.083 171.46 172.74 170.534C172.397 169.609 171.467 168.852 170.673 168.852ZM134.619 190.004C133.562 190.004 132.372 190.686 131.975 191.519C131.476 192.568 132.078 193.676 133.938 195.124C135.415 196.274 138.876 198.468 141.63 199.998C144.658 201.682 147.302 202.537 148.32 202.162C149.245 201.821 150.002 200.893 150.002 200.099C150.002 199.306 148.164 197.537 145.916 196.169C143.669 194.8 140.64 192.853 139.186 191.842C137.732 190.831 135.677 190.004 134.619 190.004Z" fill="black"/>
</svg>
